<svg xmlns="http://www.w3.org/2000/svg" id="logo" role="img" viewBox="0 0 84 96"><title>{&apos;Logo&apos;}</title><g><g transform="translate(-8.000000, -2.000000) translate(11.000000, 5.000000)"><polygon id="Shape" fill="#0a192f" stroke="currentColor" points="39 0 0 22 0 67 39 90 78 68 78 23" strokeLinecap="round" strokeLinejoin="round" strokeWidth="5"/><path fill="#64ffda" d="M 24.9269,53.8333L 24.9269,21.3222L 36.6106,21.3222C 48.3282,21.3222 54.1869,26.6053 54.1869,37.1714C 54.1869,42.2319 52.588,46.274 49.3901,49.2977C 46.1922,52.3215 41.9324,53.8333 36.6106,53.8333L 24.9269,53.8333 Z M 32.3581,27.36L 32.3581,47.7956L 36.0156,47.7956C 39.2231,47.7956 41.7377,46.8509 43.5591,44.9617C 45.3806,43.0725 46.2914,40.5023 46.2914,37.2512C 46.2914,34.1791 45.3879,31.7625 43.5809,30.0015C 41.7739,28.2405 39.2376,27.36 35.972,27.36L 32.3581,27.36 Z" strokeLinejoin="round" transform="translate(2, 8)"/></g></g></svg>